<?xml version="1.0" standalone="no"?><!DOCTYPE svg PUBLIC "-//W3C//DTD SVG 1.1//EN" "http://www.w3.org/Graphics/SVG/1.1/DTD/svg11.dtd"><svg t="1647584850238" class="icon" viewBox="0 0 1024 1024" version="1.1" xmlns="http://www.w3.org/2000/svg" p-id="9137" xmlns:xlink="http://www.w3.org/1999/xlink"><defs><style type="text/css"></style></defs><path d="M101.87 678.5h817.86c7.88 0 14.27-6.39 14.27-14.27v-115.9c0-7.88-6.39-14.27-14.27-14.27H101.87c-7.88 0-14.27 6.39-14.27 14.27v115.91c0 7.87 6.39 14.26 14.27 14.26z" fill="#FF0000" opacity=".4" p-id="9138"></path><path d="M871.93 696.34H151.61c-48.31 0-87.62-39.31-87.62-87.62V151.15c0-48.31 39.31-87.62 87.62-87.62h720.32c48.31 0 87.62 39.31 87.62 87.62v457.57c0 48.31-39.31 87.62-87.62 87.62zM151.61 107.53c-24.05 0-43.62 19.57-43.62 43.62v457.57c0 24.05 19.57 43.62 43.62 43.62h720.32c24.05 0 43.62-19.57 43.62-43.62V151.15c0-24.05-19.57-43.62-43.62-43.62H151.61z" p-id="9139"></path><path d="M642.47 836.41H383.01l26.37-182.07h206.71l26.38 182.07z m-208.62-44h157.79l-13.63-94.07H447.47l-13.62 94.07z" p-id="9140"></path><path d="M725.77 958.33H291.13c-45.74 0-82.96-37.22-82.96-82.96s37.22-82.96 82.96-82.96h434.63c45.74 0 82.96 37.22 82.96 82.96 0.01 22.15-8.62 42.99-24.29 58.66-15.67 15.67-36.5 24.3-58.66 24.3zM291.13 836.41c-21.48 0-38.96 17.48-38.96 38.96s17.48 38.96 38.96 38.96h434.64c10.41 0 20.19-4.05 27.55-11.41 7.36-7.36 11.41-17.14 11.4-27.54 0-21.49-17.48-38.97-38.96-38.97H291.13z" p-id="9141"></path><path d="M85.99 512.06H934v44H85.99z" fill="#050505" p-id="9142"></path><path d="M251.89 79.99h44v447.86h-44zM217.18 259.38h-84.26c-7.18 0-12.99-5.82-12.99-12.99 0-7.18 5.82-12.99 12.99-12.99h84.26c7.18 0 12.99 5.82 12.99 12.99 0.01 7.17-5.81 12.99-12.99 12.99zM611.95 437.31l52.51-161.46c2.22-6.82 9.55-10.56 16.38-8.34 6.82 2.22 10.56 9.55 8.34 16.38l-52.51 161.46c-2.22 6.82-9.55 10.56-16.38 8.34-6.82-2.23-10.56-9.56-8.34-16.38zM217.18 307.01h-84.26c-7.18 0-12.99-5.82-12.99-12.99 0-7.18 5.82-12.99 12.99-12.99h84.26c7.18 0 12.99 5.82 12.99 12.99 0.01 7.17-5.81 12.99-12.99 12.99zM217.18 354.63h-84.26c-7.18 0-12.99-5.82-12.99-12.99 0-7.18 5.82-12.99 12.99-12.99h84.26c7.18 0 12.99 5.82 12.99 12.99 0.01 7.18-5.81 12.99-12.99 12.99z" fill="#050505" p-id="9143"></path><path d="M342.56 150.16m-23.52 0a23.52 23.52 0 1 0 47.04 0 23.52 23.52 0 1 0-47.04 0Z" fill="#050505" p-id="9144"></path><path d="M403.24 150.16m-23.52 0a23.52 23.52 0 1 0 47.04 0 23.52 23.52 0 1 0-47.04 0Z" fill="#050505" p-id="9145"></path><path d="M463.92 150.16m-23.52 0a23.52 23.52 0 1 0 47.04 0 23.52 23.52 0 1 0-47.04 0Z" fill="#050505" p-id="9146"></path><path d="M531.74 403.33m-15.43 0a15.43 15.43 0 1 0 30.86 0 15.43 15.43 0 1 0-30.86 0Z" fill="#050505" p-id="9147"></path><path d="M531.74 442.95m-15.43 0a15.43 15.43 0 1 0 30.86 0 15.43 15.43 0 1 0-30.86 0Z" fill="#050505" p-id="9148"></path><path d="M468.55 273.9m-14.98 0a14.98 14.98 0 1 0 29.96 0 14.98 14.98 0 1 0-29.96 0Z" fill="#050505" p-id="9149"></path><path d="M472.81 443.5m-14.98 0a14.98 14.98 0 1 0 29.96 0 14.98 14.98 0 1 0-29.96 0Z" fill="#050505" p-id="9150"></path><path d="M439.37 464.9c-58.12 0-105.4-47.28-105.4-105.4s47.28-105.4 105.4-105.4c12.04 0 23.85 2.02 35.11 6l-10 28.28c-8.04-2.84-16.49-4.28-25.11-4.28-41.58 0-75.4 33.82-75.4 75.4s33.82 75.4 75.4 75.4c9.64 0 19.02-1.79 27.89-5.32l11.1 27.87c-12.41 4.94-25.53 7.45-38.99 7.45z" fill="#050505" p-id="9151"></path></svg>