<?xml version="1.0" standalone="no"?><!DOCTYPE svg PUBLIC "-//W3C//DTD SVG 1.1//EN" "http://www.w3.org/Graphics/SVG/1.1/DTD/svg11.dtd"><svg t="1647559120826" class="icon" viewBox="0 0 1024 1024" version="1.1" xmlns="http://www.w3.org/2000/svg" p-id="2890" xmlns:xlink="http://www.w3.org/1999/xlink"><defs><style type="text/css"></style></defs><path d="M85.333333 793.6h878.933334a8.533333 8.533333 0 0 1 8.533333 8.533333v162.133334a8.533333 8.533333 0 0 1-8.533333 8.533333H85.333333a8.533333 8.533333 0 0 1-8.533333-8.533333V802.133333a8.533333 8.533333 0 0 1 8.533333-8.533333z" fill="#96CAFF" p-id="2891"></path><path d="M614.4 870.4h281.6v25.6H614.4zM307.2 870.4h25.6v25.6h-25.6z" fill="#175AA7" p-id="2892"></path><path d="M102.4 760.490667l49.664-79.872A51.2 51.2 0 0 1 188.245333 665.6h674.133334a51.2 51.2 0 0 1 36.181333 15.018667l75.178667 79.872" fill="#B3D9FF" p-id="2893"></path><path d="M153.6 870.4h25.6v25.6h-25.6zM230.4 870.4h25.6v25.6h-25.6z" fill="#175AA7" p-id="2894"></path><path d="M204.8 94.890667l75.264-54.272A51.2 51.2 0 0 1 316.245333 25.6H789.333333a51.2 51.2 0 0 1 36.181334 15.018667l75.178666 54.272" fill="#B3D9FF" p-id="2895"></path><path d="M851.626667 81.066667L780.714667 25.6 716.8 40.618667l71.424 52.309333L851.626667 81.066667z" fill="#96CAFF" p-id="2896"></path><path d="M202.837333 61.354667l3.157334-2.645334A25.6 25.6 0 0 1 224.085333 51.2h571.733334a25.6 25.6 0 0 1 18.090666 7.509333l3.072 2.645334 46.421334 33.536h43.690666l-74.837333-54.272A51.2 51.2 0 0 0 796.074667 25.6h-571.733334A51.2 51.2 0 0 0 187.733333 40.618667l-75.093333 54.272h43.776z m0 0l3.157334-2.645334A25.6 25.6 0 0 1 224.085333 51.2h571.733334a25.6 25.6 0 0 1 18.090666 7.509333l3.072 2.645334 46.421334 33.536h43.690666l-74.837333-54.272A51.2 51.2 0 0 0 796.074667 25.6h-571.733334A51.2 51.2 0 0 0 187.733333 40.618667l-75.093333 54.272h43.776z" fill="#175AA7" p-id="2897"></path><path d="M952.576 760.064L880.981333 665.6 844.8 701.781333l45.397333 58.282667h62.378667z" fill="#96CAFF" p-id="2898"></path><path d="M76.8 768a25.6 25.6 0 0 0-25.6 25.6v153.6a25.6 25.6 0 0 0 25.6 25.6h870.4a25.6 25.6 0 0 0 25.6-25.6V793.6a25.6 25.6 0 0 0-25.6-25.6z m0-25.6h870.4a51.2 51.2 0 0 1 51.2 51.2v153.6a51.2 51.2 0 0 1-51.2 51.2H76.8a51.2 51.2 0 0 1-51.2-51.2V793.6a51.2 51.2 0 0 1 51.2-51.2z" fill="#175AA7" p-id="2899"></path><path d="M153.6 128l742.4 0 0 563.2-742.4 0 0-563.2Z" fill="#96CAFF" p-id="2900"></path><path d="M153.6 102.4a25.6 25.6 0 0 0-25.6 25.6v537.6a25.6 25.6 0 0 0 25.6 25.6h716.8a25.6 25.6 0 0 0 25.6-25.6V128a25.6 25.6 0 0 0-25.6-25.6z m0-25.6h716.8a51.2 51.2 0 0 1 51.2 51.2v537.6a51.2 51.2 0 0 1-51.2 51.2H153.6a51.2 51.2 0 0 1-51.2-51.2V128a51.2 51.2 0 0 1 51.2-51.2z" fill="#175AA7" p-id="2901"></path><path d="M204.8 179.2v435.2h614.4V179.2z m0-25.6h614.4a25.6 25.6 0 0 1 25.6 25.6v435.2a25.6 25.6 0 0 1-25.6 25.6H204.8a25.6 25.6 0 0 1-25.6-25.6V179.2a25.6 25.6 0 0 1 25.6-25.6zM106.410667 665.6L37.717333 760.490667l21.930667 13.141333 68.693333-94.890667L106.410667 665.6zM893.44 680.96l70.912 92.416 20.48-15.36L913.92 665.6l-20.48 15.36z" fill="#175AA7" p-id="2902"></path></svg>