<?xml version="1.0" standalone="no"?><!DOCTYPE svg PUBLIC "-//W3C//DTD SVG 1.1//EN" "http://www.w3.org/Graphics/SVG/1.1/DTD/svg11.dtd"><svg t="1690353708752" class="icon" viewBox="0 0 1136 1024" version="1.1" xmlns="http://www.w3.org/2000/svg" p-id="1476" xmlns:xlink="http://www.w3.org/1999/xlink" width="221.875" height="200"><path d="M262.92443656 431.7461825v49.9476075a71.59156969 71.59156969 0 0 1 12.32040938-11.65444125 43.62091031 43.62091031 0 0 1 13.48585406-6.32669719 53.11095562 53.11095562 0 0 1 15.65025-2.16439687 47.78321063 47.78321063 0 0 1 22.64291531 5.327745 41.12352938 41.12352938 0 0 1 20.14553531 28.9696125 104.05751437 104.05751437 0 0 1 1.33193625 16.64920219v64.09942874a22.64291531 22.64291531 0 0 1-4.66177687 15.15077438 15.65025 15.65025 0 0 1-12.15391781 4.99476094c-10.98847313 0-16.64920219-6.65968125-16.64920219-20.14553531v-56.44079532a49.9476075 49.9476075 0 0 0-4.82826844-24.64081968 18.81359906 18.81359906 0 0 0-17.98113844-8.49109313 27.63767625 27.63767625 0 0 0-16.64920312 4.99476 31.63348406 31.63348406 0 0 0-10.65548906 13.81883813 88.24077281 88.24077281 0 0 0-2.6638725 26.63872406v44.12038594a22.30993125 22.30993125 0 0 1-4.49528438 14.98428187 15.15077438 15.15077438 0 0 1-12.32041031 5.16125344c-10.98847313 0-16.64920219-6.65968125-16.64920219-20.14553532V431.7461825a21.97694719 21.97694719 0 0 1 4.32879281-15.15077344 14.65129781 14.65129781 0 0 1 12.15391782-5.16125343 15.15077438 15.15077438 0 0 1 12.32040937 5.16125343 22.30993125 22.30993125 0 0 1 5.327745 15.15077344zM383.29816906 465.04458781h3.66282469v-20.977995-12.65339437a18.81359906 18.81359906 0 0 1 2.49738094-7.825125 13.48585406 13.48585406 0 0 1 5.49423656-5.49423657 15.31726594 15.31726594 0 0 1 8.15810906-2.16439593 16.64920219 16.64920219 0 0 1 11.65444125 4.66177593 16.64920219 16.64920219 0 0 1 4.32879282 7.82512594 83.24601187 83.24601187 0 0 1 0.83246062 12.9863775V465.04458781h12.15391781a15.15077438 15.15077438 0 0 1 10.82198157 3.32984063 10.82198156 10.82198156 0 0 1 3.82931625 8.49109312 9.82302937 9.82302937 0 0 1-5.327745 9.49004531 34.63034063 34.63034063 0 0 1-15.31726594 2.6638725h-6.16020469v61.26906469a110.71719563 110.71719563 0 0 0 0 12.15391688 12.81988594 12.81988594 0 0 0 2.99685656 6.82617375 10.322505 10.322505 0 0 0 7.825125 2.66387156 33.29840438 33.29840438 0 0 0 7.825125-1.16544375 43.12143375 43.12143375 0 0 1 7.825125-0.99895219 11.15496563 11.15496563 0 0 1 10.4889975 11.32145719 13.15287 13.15287 0 0 1-8.82407718 12.32041031 59.10466875 59.10466875 0 0 1-25.14029532 4.16230031 44.28687844 44.28687844 0 0 1-23.80836-5.1612525 24.30783562 24.30783562 0 0 1-10.4889975-14.65129781 97.39783406 97.39783406 0 0 1-2.49738-24.64081969v-64.93188937H381.63324969a16.64920219 16.64920219 0 0 1-10.98847407-3.32984062 11.48794969 11.48794969 0 0 1-3.66282468-8.82407719 10.322505 10.322505 0 0 1 3.82931718-8.49109313 16.64920219 16.64920219 0 0 1 12.48690094-2.49738zM471.87192594 465.04458781h3.66282468v-20.977995-12.65339437a18.81359906 18.81359906 0 0 1 2.49738-7.825125 13.48585406 13.48585406 0 0 1 5.49423657-5.49423657 15.31726594 15.31726594 0 0 1 8.15811-2.16439593 16.64920219 16.64920219 0 0 1 11.48794968 4.66177593 13.65234563 13.65234563 0 0 1 4.32879188 7.82512594 63.76644469 63.76644469 0 0 1 0.99895219 12.9863775V465.04458781h12.15391781a15.15077438 15.15077438 0 0 1 10.82198156 3.32984063 10.82198156 10.82198156 0 0 1 3.82931625 8.49109312 9.82302937 9.82302937 0 0 1-5.32774406 9.49004531 34.63034063 34.63034063 0 0 1-15.31726688 2.6638725h-6.16020468v61.26906469a110.71719563 110.71719563 0 0 0 0 12.15391688 11.65444125 11.65444125 0 0 0 2.99685656 6.82617375 10.15601344 10.15601344 0 0 0 7.65863344 2.66387156 33.29840438 33.29840438 0 0 0 7.99161656-1.16544375 43.12143375 43.12143375 0 0 1 7.825125-0.99895219 11.15496563 11.15496563 0 0 1 10.4889975 11.32145719 13.15287 13.15287 0 0 1-8.82407719 12.32041031 59.10466875 59.10466875 0 0 1-25.14029531 4.16230031 43.95389438 43.95389438 0 0 1-23.80835906-5.1612525 24.30783562 24.30783562 0 0 1-10.4889975-14.65129781 97.39783406 97.39783406 0 0 1-2.49738094-24.64081969v-64.93188937h-4.49528438a16.64920219 16.64920219 0 0 1-10.98847312-3.32984062 11.65444125 11.65444125 0 0 1-3.82931719-8.82407719 10.4889975 10.4889975 0 0 1 3.99580875-8.49109313 16.64920219 16.64920219 0 0 1 12.48690188-2.49738zM589.41529438 479.86237812v3.99580782a64.93188937 64.93188937 0 0 1 19.47956718-16.64920219 47.283735 47.283735 0 0 1 22.47642281-5.82722063 53.11095562 53.11095562 0 0 1 28.30364438 7.9916175 54.10990781 54.10990781 0 0 1 21.64396312 23.3088825 80.91512344 80.91512344 0 0 1 7.49214094 36.12876938 90.90464438 90.90464438 0 0 1-4.32879281 28.30364437 63.43346062 63.43346062 0 0 1-11.82093375 21.47747063 54.44289188 54.44289188 0 0 1-17.98113844 13.48585406 52.278495 52.278495 0 0 1-22.14343875 4.66177688 46.45127437 46.45127437 0 0 1-23.97485156-5.66072907 68.92769813 68.92769813 0 0 1-18.480615-16.64920218v49.94760656c0 14.81779031-5.49423656 22.14343875-16.64920219 22.14343969a12.65339344 12.65339344 0 0 1-12.32040937-5.82722063 33.29840438 33.29840438 0 0 1-3.16334907-16.64920312v-143.8491075a20.977995 20.977995 0 0 1 4.16230125-14.31831469 14.48480625 14.48480625 0 0 1 11.32145719-4.66177688 15.31726594 15.31726594 0 0 1 11.65444125 4.82826938 19.47956719 19.47956719 0 0 1 4.32879281 13.81883812z m65.26487343 48.61567032a58.77168469 58.77168469 0 0 0-3.99580875-22.80940688 33.29840438 33.29840438 0 0 0-11.15496562-14.48480625 27.47118375 27.47118375 0 0 0-16.64920219-4.99476094 29.30259656 29.30259656 0 0 0-23.30888344 10.82198157 47.283735 47.283735 0 0 0-9.49004531 31.96646906 45.95179875 45.95179875 0 0 0 9.49004531 30.96751594 29.46908812 29.46908812 0 0 0 23.30888344 11.15496562 26.97170813 26.97170813 0 0 0 15.31726594-4.82826844 34.79683312 34.79683312 0 0 0 11.32145812-14.48480625 58.27220812 58.27220812 0 0 0 5.1612525-23.30888343zM718.4466125 479.36290156a16.64920219 16.64920219 0 0 1 5.4942375-13.31936156 18.3141225 18.3141225 0 0 1 13.15286906-4.82826937 19.14658312 19.14658312 0 0 1 12.81988594 4.82826937 16.64920219 16.64920219 0 0 1 5.327745 13.31936156 17.64815438 17.64815438 0 0 1-5.82722062 12.65339344 17.98113844 17.98113844 0 0 1-12.81988594 5.66072906 17.64815438 17.64815438 0 0 1-12.81988594-5.49423656 17.81464687 17.81464687 0 0 1-5.327745-12.81988594z m18.64710656 116.54441625a18.64710656 18.64710656 0 0 1-13.15286906-4.82826843 18.81359906 18.81359906 0 0 1 0-26.47223157 16.64920219 16.64920219 0 0 1 12.819885-5.327745 17.98113844 17.98113844 0 0 1 13.15287 5.1612525 17.81464687 17.81464687 0 0 1 5.49423656 12.98637844 16.64920219 16.64920219 0 0 1-5.49423656 13.65234563 18.480615 18.480615 0 0 1-12.81988594 5.66072906zM840.48526625 436.40795937l-34.130865 140.85225188q-1.66492031 6.99266531-2.99685656 10.98847406a12.9863775 12.9863775 0 0 1-3.99580875 6.32669625 11.32145719 11.32145719 0 0 1-7.6586325 2.16439688c-8.32460156 0-12.32040937-3.49633219-12.32041032-10.65549a86.07637594 86.07637594 0 0 1 2.33088844-14.15182219l33.29840438-140.85225188a62.933985 62.933985 0 0 1 5.16125344-15.31726593 9.82302937 9.82302937 0 0 1 9.49004531-4.16230032 13.31936156 13.31936156 0 0 1 9.32355281 2.99685657 10.15601344 10.15601344 0 0 1 3.32984063 7.99161656 73.75596656 73.75596656 0 0 1-1.83141188 13.81883812zM910.74489969 436.40795937l-34.130865 140.85225188q-1.66492031 6.99266531-2.99685563 10.98847406a14.31831375 14.31831375 0 0 1-3.99580875 6.32669625 11.32145719 11.32145719 0 0 1-7.65863343 2.16439688c-8.32460156 0-12.48690187-3.49633219-12.48690188-10.65549a95.23343719 95.23343719 0 0 1 2.49738094-14.15182219l33.29840437-140.85225188a56.27430375 56.27430375 0 0 1 5.1612525-15.31726593 9.65653781 9.65653781 0 0 1 9.49004532-4.16230032 13.31936156 13.31936156 0 0 1 9.32355375 2.99685657 9.98952188 9.98952188 0 0 1 3.16334812 7.99161656 69.42717375 69.42717375 0 0 1-1.66492031 13.81883812zM161.69728625 824.33437437l92.56956469 160.33181813 92.56956562-160.33181812H161.69728625z" p-id="1477" fill="#1296db"></path><path d="M931.05692656 723.77319219a444.53370281 444.53370281 0 0 1-625.01105625 169.82186343l-16.64920219 28.30364438a477.16613906 477.16613906 0 0 0 677.95551938-198.12550781zM967.85166406 199.82279375L875.28209844 39.49097562l-92.56956469 160.33181813h185.13913031z" p-id="1478" fill="#1296db"></path><path d="M198.49202375 300.38397594a444.53370281 444.53370281 0 0 1 624.84456375-169.82186344l16.64920219-28.30364437a477.16613906 477.16613906 0 0 0-678.28850344 198.12550781zM1008.30922531 305.04575281H121.239725A89.40621656 89.40621656 0 0 0 32 394.28547781v240.24798938a89.40621656 89.40621656 0 0 0 89.239725 89.239725h146.84596406a16.64920219 16.64920219 0 0 0 0-32.29945313H121.239725A56.60728781 56.60728781 0 0 1 65.29840438 634.53346719V394.28547781a56.77378031 56.77378031 0 0 1 56.60728874-56.77378031h886.40353219A56.77378031 56.77378031 0 0 1 1064.25054594 394.28547781v240.24798938a56.60728781 56.60728781 0 0 1-56.60728875 56.60728875H410.10338563a16.64920219 16.64920219 0 0 0-15.65025094 16.64920218 16.64920219 16.64920219 0 0 0 15.65025093 16.64920219h598.20583969a89.40621656 89.40621656 0 0 0 89.239725-89.90569312V394.28547781a89.40621656 89.40621656 0 0 0-89.239725-89.239725z" p-id="1479" fill="#1296db"></path><path d="M333.3505625 707.45697406m-16.31621812 0a16.31621812 16.31621812 0 1 0 32.63243624 0 16.31621812 16.31621812 0 1 0-32.63243625 0Z" p-id="1480" fill="#1296db"></path></svg>