<?xml version="1.0" standalone="no"?><!DOCTYPE svg PUBLIC "-//W3C//DTD SVG 1.1//EN" "http://www.w3.org/Graphics/SVG/1.1/DTD/svg11.dtd"><svg t="1647559003487" class="icon" viewBox="0 0 1024 1024" version="1.1" xmlns="http://www.w3.org/2000/svg" p-id="4280" xmlns:xlink="http://www.w3.org/1999/xlink"><path d="M454.87785 321.736c-61.387 61.386-124.82 121.068-184.774 184.16-44.404 46.722-40.925 113.906 5.593 161.924 55.18 56.68 111.996 111.724 168.063 167.45 21.212 21.963 20.94 47.063 5.388 70.39-14.392 21.485-35.058 34.65-63.092 22.577a132.664 132.664 0 0 1-35.672-25.578c-51.77-52.315-104.767-103.47-155.99-156.4-89.898-92.83-90.921-232.451-0.478-324.668C320.98585 291.724 449.96585 163.903 578.40085 35.537c28.307-28.306 63.843-30.148 87.033-6.002s21.008 55.657-6.411 84.509q-43.176 45.426-86.692 90.443c-30.693 47.609-71.823 84.645-117.453 117.249z" fill="#070706" p-id="4282"></path><path d="M677.02885 641.015H493.41485c-40.925 0-70.186-24.76-69.504-58.113 0.614-32.262 27.966-55.998 68.208-56.135q187.025-0.886 374.05 0c39.833 0 62.342 22.031 62.683 56.476 0 35.74-23.055 57.294-64.934 57.704-62.137 0.545-124.547 0.068-186.889 0.068z" fill="#B4B2B1" p-id="4283"></path><path d="M386.05585 928.1c60.569-7.366 79.053-37.241 57.704-92.967 63.842 33.49 110.837 26.056 162.47-25.577 26.465-26.465 52.52-53.339 79.598-79.19s57.431-26.464 81.44-2.728 23.532 54.566-1.978 81.44c-34.104 35.195-67.457 70.595-103.47 103.266-76.939 69.777-199.917 75.915-275.764 15.756z" fill="#EAA240" p-id="4284"></path><path d="M454.87785 321.736A1295.942 1295.942 0 0 1 572.33085 204.487c89.693 27.829 142.349 101.152 202.372 164.926 19.575 20.871 11.663 53.747-10.777 72.777a53.338 53.338 0 0 1-73.869-2.183 821.627 821.627 0 0 1-74.414-74.278c-44.13-52.315-96.855-66.502-160.765-43.993z" fill="#EAA340" p-id="4285"></path></svg>