<?xml version="1.0" standalone="no"?><!DOCTYPE svg PUBLIC "-//W3C//DTD SVG 1.1//EN" "http://www.w3.org/Graphics/SVG/1.1/DTD/svg11.dtd"><svg t="1647559167113" class="icon" viewBox="0 0 1024 1024" version="1.1" xmlns="http://www.w3.org/2000/svg" p-id="5637" xmlns:xlink="http://www.w3.org/1999/xlink"><path d="M512.008186 792.682657c-137.942699 0-250.16562-153.7405-250.165619-342.731852 0-16.720823 2.64627-120.787994 2.75781-125.227096l0.842181-33.364898 33.032324 4.63353a306.873156 306.873156 0 0 0 42.48972 2.974751c55.576783 0 107.147322-14.588253 141.05662-39.457663l29.958312-28.1839 29.623691 28.1839c33.912367 24.883737 85.49007 39.46892 141.051503 39.46892 14.179954 0 28.470425-1.00284 42.487673-2.971682l32.910551-4.617157 0.967024 33.230845c0.135076 4.379751 3.13541 107.33561 3.135411 125.332497 0.002047 188.989305-112.209618 342.729805-250.147201 342.729805z" fill="#F7D11E" p-id="5638"></path><path d="M512.017396 810.553677c-147.798161 0-268.042779-161.76629-268.042779-360.604918 0-10.024308 0.890276-50.699706 2.65241-120.890325l0.942465-38.144761a17.885346 17.885346 0 0 1 6.316869-13.183254c3.874237-3.298116 8.951883-4.7727 14.029528-4.065596l33.032324 4.632507c64.336284 9.05626 130.383536-4.248767 169.644725-32.577976l29.140691-27.413349a17.863856 17.863856 0 0 1 24.568558 0.069584l28.774347 27.369348c31.182186 22.484084 78.33102 35.361369 129.580241 35.361369 13.331633 0 26.78504-0.942465 39.994899-2.800789l32.926924-4.615111c5.008061-0.715291 10.120498 0.76748 14.012131 4.040013a17.953907 17.953907 0 0 1 6.334266 13.139251l0.959861 33.232892c0.017396 0.933255 3.140527 106.791212 3.140527 125.846197 0 198.838627-120.227222 360.604918-268.007987 360.604918zM282.799878 311.835168l-0.453325 18.112519c-2.181689 87.055728-2.635013 113.308649-2.635013 120.001072 0 179.128727 104.20941 324.867995 232.30688 324.867995 128.080074 0 232.271064-145.739269 232.271064-324.867995 0-17.641799-2.966565-119.494535-3.123131-124.764562l-0.401136-13.331633-13.139251 1.840928a323.003532 323.003532 0 0 1-44.967145 3.149736c-59.171658 0-114.434286-15.652492-151.619186-42.934858a18.228153 18.228153 0 0 1-1.744737-1.457188L511.913019 255.918647l-17.641799 16.603143c-0.541329 0.497327-1.099031 0.959861-1.675152 1.387603-46.590108 34.175357-122.792651 50.158377-196.60475 39.775912l-13.19144-1.850137z" fill="#885F44" p-id="5639"></path><path d="M511.878227 309.22369v0.12075c0.045025-0.034792 0.093121-0.070608 0.138146-0.12075h-0.138146z" fill="#43607D" p-id="5640"></path><path d="M511.878227 309.22369v0.12075c0.045025-0.034792 0.093121-0.070608 0.138146-0.12075h-0.138146zM511.676635 309.2329c0.039909 0.040932 0.082888 0.076748 0.127914 0.11154v-0.11154h-0.127914z" fill="#43607D" p-id="5641"></path><path d="M511.676635 309.2329c0.039909 0.040932 0.082888 0.076748 0.127914 0.11154v-0.11154h-0.127914z" fill="#43607D" p-id="5642"></path><path d="M512 958.708971c-246.317988 0-446.708971-200.390983-446.708971-446.708971S265.680988 65.290005 512 65.290005 958.708971 265.680988 958.708971 512 758.317988 958.708971 512 958.708971z m0-857.682043c-226.617297 0-410.973072 184.363961-410.973072 410.973072s184.354751 410.973072 410.973072 410.973072 410.973072-184.363961 410.973072-410.973072S738.617297 101.026928 512 101.026928z" fill="#885F44" p-id="5643"></path><path d="M646.01218 529.86795H377.986797c-9.876951 0-17.86795-8.000208-17.86795-17.86795s7.992021-17.86795 17.86795-17.86795h268.025383c9.876951 0 17.86795 8.000208 17.867949 17.86795s-7.990998 17.86795-17.867949 17.86795z" fill="#FF713C" p-id="5644"></path><path d="M512 663.881153c-9.876951 0-17.86795-8.000208-17.86795-17.86795V377.986797c0-9.867742 7.992021-17.86795 17.86795-17.86795 9.876951 0 17.86795 8.000208 17.86795 17.86795v268.025383c0 9.867742-7.992021 17.868973-17.86795 17.868973z" fill="#FF713C" p-id="5645"></path></svg>