<?xml version="1.0" standalone="no"?><!DOCTYPE svg PUBLIC "-//W3C//DTD SVG 1.1//EN" "http://www.w3.org/Graphics/SVG/1.1/DTD/svg11.dtd"><svg t="1647559516200" class="icon" viewBox="0 0 1103 1103" version="1.1" xmlns="http://www.w3.org/2000/svg" p-id="2305" xmlns:xlink="http://www.w3.org/1999/xlink"><path d="M216.357272 671.432944H136.36495a17.240654 17.240654 0 0 1 0-34.481307h79.992322a17.240654 17.240654 0 0 1 0 34.481307z" fill="#6E6E96" p-id="2306"></path><path d="M114.443459 918.586334v-613.336252c0-44.170555 21.990454-49.976345 48.864322-49.976345h792.897659c26.869559 0 48.881563 5.831651 48.881563 49.976345v613.336252" fill="#B9BCC9" p-id="2307"></path><path d="M956.20544 254.239298H163.312091c-26.873869 0-48.864322 5.81441-48.864322 49.980655v39.877632c0-44.170555 21.990454-49.976345 48.864322-49.976345h792.897659c26.869559 0 48.881563 5.831651 48.881563 49.976345v-39.877632c-0.00431-44.144694-22.012004-49.980655-48.885873-49.980655z" fill="#FFFFFF" opacity=".15" p-id="2308"></path><path d="M1016.215845 913.315004h-34.481307V305.237152c0-28.21433-7.512615-32.731381-31.6366-32.731381h-170.010085a17.240654 17.240654 0 0 1 0-34.481307h170.010085c28.382426 0 66.117907 6.969534 66.117907 67.212688v608.077852zM120.55527 930.555658a17.240654 17.240654 0 0 1-17.240653-17.240654V305.237152c0-60.243154 37.735481-67.212688 66.122216-67.212688h162.389717a17.240654 17.240654 0 0 1 0 34.481307H169.436833c-24.128295 0-31.64091 4.512741-31.640909 32.731381v608.082162a17.240654 17.240654 0 0 1-17.240654 17.236344z" fill="#6E6E96" p-id="2309"></path><path d="M1024.478428 900.513819h-347.950871v33.494279H430.912896v-33.494279H97.840709c-15.357112 0-27.925549 12.551196-27.925549 27.908308v72.570221H1052.369495v-72.570221c0.017241-15.348492-12.542575-27.908308-27.891067-27.908308z" fill="#B9BCC9" p-id="2310"></path><path d="M1024.478428 888.540185h-347.950871v33.494279H430.912896v-33.494279H97.840709c-15.357112 0-27.925549 12.559816-27.925549 27.916928v43.868843c0-15.352802 12.555506-27.916928 27.925549-27.916928h333.059256v33.49428h245.614662v-33.49428h347.950871c15.357112 0 27.921238 12.551196 27.921238 27.916928v-43.868843c0-15.357112-12.559816-27.916928-27.908308-27.916928z" fill="#FFFFFF" opacity=".15" p-id="2311"></path><path d="M188.690333 336.06344h737.762049v498.26782H188.690333z" fill="#8CBDF2" p-id="2312"></path><path d="M188.690333 336.06344h724.422093v52.265042H188.690333z" fill="#6E6E96" opacity=".15" p-id="2313"></path><path d="M426.236369 810.940003l486.876057-456.140282v133.856434l-322.921752 322.283848z" fill="#DEEFFF" opacity=".31" p-id="2314"></path><path d="M913.112426 488.656155l-322.921752 322.283848h322.921752z" fill="#FFFFFF" opacity=".31" p-id="2315"></path><path d="M926.452382 851.567603H188.690333a17.240654 17.240654 0 0 1-17.240653-17.240654V336.06344a17.240654 17.240654 0 0 1 17.240653-17.240653h145.291298a17.240654 17.240654 0 0 1 0 34.481307H205.930987v463.786512h703.280741V353.304094h-133.434038a17.240654 17.240654 0 0 1 0-34.481307h150.674692a17.240654 17.240654 0 0 1 17.240654 17.240653v498.26782a17.240654 17.240654 0 0 1-17.240654 17.236343z" fill="#6E6E96" p-id="2316"></path><path d="M69.928091 966.148987h982.454335v34.83474H69.928091z" fill="#6E6E96" opacity=".15" p-id="2317"></path><path d="M1052.373806 1018.228691H69.919471a17.240654 17.240654 0 0 1-17.240654-17.240653v-72.570222c0-24.891194 20.262078-45.148962 45.166202-45.148961h333.067877a17.240654 17.240654 0 0 1 17.240654 17.240653v16.253627h211.133354v-16.253627a17.240654 17.240654 0 0 1 17.240653-17.240653h347.950871a44.825699 44.825699 0 0 1 31.899519 13.249442 44.786908 44.786908 0 0 1 13.236512 31.90814v72.55729a17.240654 17.240654 0 0 1-17.240653 17.244964z m-965.213682-34.481307h947.973028v-55.329568a10.53835 10.53835 0 0 0-3.142109-7.516925 10.572831 10.572831 0 0 0-7.516925-3.146419H693.763901v16.253626a17.240654 17.240654 0 0 1-17.240654 17.240654H430.912896a17.240654 17.240654 0 0 1-17.240654-17.240654v-16.253626H97.840709c-5.79286 0-10.684895 4.883415-10.684895 10.667655v55.325257z" fill="#6E6E96" p-id="2318"></path><path d="M562.161682 785.695376a17.240654 17.240654 0 0 1-17.240654-17.240654v-94.810664a17.240654 17.240654 0 0 1 34.481307 0v94.810664a17.240654 17.240654 0 0 1-17.240653 17.240654zM635.697379 830.331428a17.240654 17.240654 0 0 1-17.240653-17.240654V712.426908a17.240654 17.240654 0 0 1 34.481307 0v100.663866a17.240654 17.240654 0 0 1-17.240654 17.240654zM480.531497 876.208807a17.240654 17.240654 0 0 1-17.240654-17.240653v-124.994739a17.240654 17.240654 0 0 1 34.481308 0v124.994739a17.240654 17.240654 0 0 1-17.240654 17.240653z" fill="#EAEAFF" p-id="2319"></path><path d="M410.547374 464.045122S355.157464 506.939868 348.118967 548.037276c-7.051427 41.106028 4.142067 205.068954 58.03204 132.610797 23.520562-31.636599 45.472224-75.992491 53.933075-76.225239" fill="#FF9696" p-id="2320"></path><path d="M381.496873 716.206922a30.826289 30.826289 0 0 1-12.193453-2.564548c-44.480886-19.055232-41.644799-148.312723-38.179427-168.518768 7.943631-46.368738 62.652535-89.901388 68.867791-94.711531a17.240654 17.240654 0 0 1 21.124111 27.253163c-13.939068 10.835751-51.17888 45.11879-56.006264 73.281398-7.034187 41.011205 4.952378 118.326916 16.848429 130.171245 1.685274-1.04306 5.172196-3.792944 10.357323-10.762478 9.085824-12.223623 18.163029-26.817837 26.175622-39.692294 18.408708-29.580651 26.809216-43.084393 41.118959-43.476619 9.568563-0.383605 17.447541 7.245385 17.706151 16.762226a17.244964 17.244964 0 0 1-10.503868 16.34845c-4.073104 4.521361-12.646019 18.300954-19.042302 28.585003-8.366027 13.4434-17.844076 28.679827-27.783313 42.049954-14.49508 19.490559-27.800554 25.274798-38.489759 25.274799z" fill="#6E6E96" p-id="2321"></path><path d="M694.044061 490.074199c21.90425 15.227807 45.411882 35.110591 51.864196 53.82101 14.861443 43.101634 1.284429 133.882295-12.960661 165.493034-9.706488 21.529266-40.390541-53.183106-89.866907-93.521925" fill="#FF9696" p-id="2322"></path><path d="M728.171935 730.469252c-14.51232 0-24.356733-13.766662-41.524114-37.765651-14.581283-20.382763-32.727071-45.752384-54.458915-63.480087a17.240654 17.240654 0 0 1 21.787876-26.718703c25.309279 20.632752 45.773935 49.247927 60.717272 70.134979 2.745574 3.836045 5.741138 8.029834 8.590156 11.87881 10.042681-36.787245 17.533745-102.495686 6.32732-135.002938-1.874921-5.426496-10.042681-20.701715-45.407572-45.286887a17.240654 17.240654 0 0 1 19.680206-28.309153c32.589145 22.649909 51.665929 43.049912 58.320821 62.359444 17.007905 49.31689 1.379252 145.08441-13.542533 178.195086-5.142025 11.409003-14.383015 13.503742-18.115617 13.874416a24.826541 24.826541 0 0 1-2.3749 0.120684z" fill="#6E6E96" p-id="2323"></path><path d="M698.910236 471.932721c10.055611-51.683169 23.649867-112.284067 20.374142-180.712221-7.512615-155.90292-116.003738-233.516033-156.204632-257.040904 0 0-17.214793-9.534081-34.722676 4.025692-269.678304 208.719663-58.635463 576.807617-58.635463 576.807617s29.00309 42.528382 82.776688 41.019825c64.824858-1.84044 82.910303-35.912281 82.910303-35.912281s46.398909-60.277635 63.501638-148.187728z" fill="#FF9696" p-id="2324"></path><path d="M459.915985 583.902146c-0.146546-0.26292-0.288781-0.487048-0.431016-0.737038 0.00862-0.00431 0.137925 0.245679 0.431016 0.737038zM544.468461 35.222655c34.5632 17.9389 57.751879 79.699231 70.195321 156.036536-46.579936-28.714309-108.448021-21.878389-147.511032 19.464698-44.748116 47.338525-42.653377 121.994865 4.693768 166.738671 42.605965 40.265546 107.305828 42.575794 152.450479 8.137588-3.517093 67.699737-14.189058 129.464378-31.67108 168.316191-80.931938 26.710083-156.260664-37.157919-156.260664-37.157919l6.560068 18.430259c53.579641 70.17377 114.667587 52.454689 134.895184 43.808501-3.292965 4.077415-6.736785 7.547096-10.374563 10.219397-70.307385 51.747822-103.543055 1.383562-107.538577-5.314431 74.90633 133.403867 165.105119 48.773809 165.105119 48.773809C886.630782 139.899284 544.45553 35.222655 544.468461 35.222655z" fill="#6E6E96" opacity=".18" p-id="2325"></path><path d="M531.240569 587.358897c-26.184243-1.262878-58.402714-13.021004-88.302317-52.170218l-6.58162-18.438879s28.48156 24.149846 69.229845 36.567426c-4.23258-8.116038-6.047159-18.111307-11.189184-27.70142-12.016736-22.451641-22.171481-44.398993-30.649572-65.898088-3.228312-9.689247-18.352676-65.342077 65.816195-52.368485a117.408851 117.408851 0 0 1-57.721708-29.899604c-47.321284-44.739496-49.450505-119.395836-4.702389-166.738671a118.089857 118.089857 0 0 1 22.447331-18.516462c-12.13742 6.551448-40.912071 16.732054-16.163112-51.855576 18.46043-34.395104 42.692168-67.238549 72.350402-98.612228 0 0-188.220525 113.624528-150.433323 332.537726 46.782514 271.113588 98.232934 241.278637 147.377418 229.891186 0-0.00431 7.547096 1.008578-11.477966-16.796707z" fill="#FFFFFF" opacity=".56" p-id="2326"></path><path d="M654.239702 611.418229l46.68769-103.172381c94.939969 52.170218 24.942916 190.315265 24.942916 190.315265s8.516883-108.353198-14.585593-130.175555c-23.102476-21.830978-32.283124 68.436774-32.283124 68.436774l-24.761889-25.404103zM390.750793 699.237808c-0.52153-18.714729 69.423802-96.599382 69.423802-96.599382l-55.471803-119.714788 12.240864 115.309801s-3.814495 31.041797-25.955804 42.911987c-22.171481 11.87019-32.429669-91.323742-32.429669-91.323742-24.684306 116.503717 32.722761 168.143784 32.19261 149.416124z" fill="#6E6E96" opacity=".2" p-id="2327"></path><path d="M551.670744 291.147227m-85.664498 0a85.664498 85.664498 0 1 0 171.328995 0 85.664498 85.664498 0 1 0-171.328995 0Z" fill="#BADBFF" p-id="2328"></path><path d="M551.670744 394.052379c-56.743301 0-102.905151-46.16185-102.905151-102.905152s46.16185-102.905151 102.905151-102.905151 102.905151 46.16185 102.905151 102.905151-46.16185 102.905151-102.905151 102.905152z m0-171.328996c-37.72686 0-68.423844 30.696984-68.423844 68.423844s30.696984 68.423844 68.423844 68.423844c37.73117 0 68.423844-30.696984 68.423844-68.423844s-30.692674-68.423844-68.423844-68.423844z" fill="#6E6E96" p-id="2329"></path><path d="M616.064585 355.489347c-33.321873 35.261447-88.935912 36.821726-124.188738 3.499852-23.076615-21.809427-31.705562-53.144315-25.59806-82.082751-2.784366 22.68439 4.848934 46.342877 22.740422 63.247337 29.886673 28.23157 76.988139 26.91266 105.232639-2.969702 28.244501-29.878053 26.90404-76.992449-2.965392-105.23695-22.136999-20.930153-53.747738-25.606681-80.134558-14.460598 32.356397-17.115659 73.34174-12.740843 101.422455 13.809763 35.252826 33.330494 36.808795 88.931601 3.491232 124.193049z" fill="#6E6E96" opacity=".2" p-id="2330"></path><path d="M548.476913 242.455312c-12.839977-9.115996-33.795991-1.668033-46.791134 16.64154-12.990832 18.318194-13.111517 40.545707-0.25861 49.670323 12.844287 9.111685 27.645388-4.159308 40.631911-22.464571 12.986522-18.309574 19.26212-34.726987 6.417833-43.847292z" fill="#FFFFFF" opacity=".42" p-id="2331"></path><path d="M585.585579 311.111336a12.158971 13.628737 17.541 1 0-23.187195-7.32914 12.158971 13.628737 17.541 1 0 23.187195 7.32914Z" fill="#FFFFFF" opacity=".25" p-id="2332"></path><path d="M549.830304 677.488724h-0.00862c-60.40263-0.00431-92.871091-46.592866-94.224482-48.575542a16.370001 16.370001 0 0 1-0.715487-1.142193c-2.219734-3.866217-54.545118-96.125264-73.876201-215.960737-25.994595-161.157009 21.348239-293.616951 136.90372-383.057152 9.206509-7.12039 19.934506-10.887473 31.020246-10.887473 12.219313 0 20.986186 4.512741 22.619738 5.417876 47.273872 27.649698 157.252001 109.008343 165.079258 271.281684 3.081767 64.497285-8.094487 121.06818-17.951831 170.979872l-2.724023 13.865796c-16.831188 86.500669-60.320737 146.817096-66.169629 154.631422-5.060132 8.016904-30.132352 41.519804-96.681275 43.394725-1.103402 0.038791-2.185253 0.051722-3.271414 0.051722z m-65.41535-67.535951c3.090387 4.189479 25.830809 33.050333 65.40673 33.054644h0.00862c0.762899 0 1.525798-0.00862 2.297317-0.030172 52.631405-1.491317 67.738528-26.037697 68.350571-27.080756 0.456877-0.862033 0.78445-1.32753 1.383563-2.09905 0.426706-0.556011 44.179175-58.445816 60.234533-140.968204l2.745574-13.960619c9.478049-47.976429 20.214666-102.362071 17.339788-162.644016-6.982465-144.81718-104.810243-217.758075-147.17484-242.66651a16.124321 16.124321 0 0 0-6.08595-1.206845c-3.478302 0-6.723855 1.202536-9.917686 3.676569-106.215357 82.212057-147.97653 199.758833-124.106845 349.355984 17.331167 108.607497 64.760205 195.99606 69.518625 204.568975z" fill="#6E6E96" p-id="2333"></path><path d="M547.037318 610.952731c-50.622869 0-83.155982-19.305222-102.056049-36.42088-22.585256-20.460346-30.886631-41.868927-31.757284-44.243828a17.240654 17.240654 0 1 1 32.365017-11.891741c0.969787 2.530066 25.705815 64.415392 114.99516 57.544992 35.860559-2.758505 68.083341-15.391593 104.478361-40.968103a17.223413 17.223413 0 0 1 24.01623 4.193789 17.232033 17.232033 0 0 1-4.193789 24.01623c-41.756863 29.343592-79.272525 43.877463-121.658672 47.140257a214.878886 214.878886 0 0 1-16.188974 0.629284z" fill="#6E6E96"></path></svg>